{"title":"Big.Game.2014.BRRip.480p.x264.AAC-VYTO [P2PDL]","uid":12205471,"size":322548590,"categoryP":"video","categoryS":"movies","magnet":"?xt=urn:btih:3d4023bdd3808d4921993617637105336159bdf3&amp;dn=Big.Game.2014.BRRip.480p.x264.AAC-VYTO+%5BP2PDL%5D&amp;tr=udp%3A%2F%2Ftracker.openbittorrent.com%3A80&amp;tr=udp%3A%2F%2Fopen.demonii.com%3A1337&amp;tr=udp%3A%2F%2Ftracker.coppersurfer.tk%3A6969&amp;tr=udp%3A%2F%2Fexodus.desync.com%3A6969","seeders":1,"leechers":3,"uploader":"ValidusVyto","files":7,"time":1438939660,"description":"____    ____ ____    ____ .___________.  ______   \n     /   /      /   / |           | /  __    \n    /   /      /   /  `---|  |----`|  |  |  | \n        /     _    _/       |  |     |  |  |  | \n       /        |  |         |  |     |  `--'  | \n    __/         |__|         |__|      ______/  \n                                                  \nPresenting Small Encodes with quality for years!\n                                                                                                   \n                                                                                                   \n\nBig.Game.2014.BRRip.480p.x264.AAC-VYTO\n\n\nGenre: Action, Adventure   &lt;a href=&quot;\nhttp://www.imdb.com/title/tt2088003/&quot; rel=&quot;nofollow&quot; target=&quot;_NEW&quot;&gt;\nhttp://www.imdb.com/title/tt2088003/&lt;/a&gt;\n\n\nGeneral\nFormat                         : MPEG-4\nFile size                      : 302 MiB\nDuration                       : 1h 30mn\nOverall bit rate               : 467 Kbps\n\nVideo\nFormat                         : AVC\nBit rate                       : 432 Kbps\nWidth                          : 720 pixels\nHeight                         : 304 pixels\nDisplay aspect ratio           : 2.35:1\nFrame rate mode                : Constant\nFrame rate                     : 23.976 fp\nBit depth                      : 8 bits\nStream size                    : 279 MiB (92%)\nWriting library                : x264 core 146 r2538 121396c\n\nAudio\nFormat                         : AAC\nBit rate mode                  : Variable\nBit rate                       : 31.9 Kbps\nChannel(s)                     : 2 channels\nChannel positions              : Front: L R\nSampling rate                  : 48.0 KHz\nStream size                    : 20.7 MiB (7%)\nLanguage                       : English\n\nSubtitle                       : Yes (English)\nSource                     \t   : BluRay.x264.DTS\t\t\n\n\nScreenshots:\n &lt;a href=&quot;\nhttp://ititli.com/eX&quot; rel=&quot;nofollow&quot; target=&quot;_NEW&quot;&gt;\nhttp://ititli.com/eX&lt;/a&gt; &lt;a href=&quot;\nhttp://ititli.com/eq&quot; rel=&quot;nofollow&quot; target=&quot;_NEW&quot;&gt;\nhttp://ititli.com/eq&lt;/a&gt; &lt;a href=&quot;\nhttp://ititli.com/er&quot; rel=&quot;nofollow&quot; target=&quot;_NEW&quot;&gt;\nhttp://ititli.com/er&lt;/a&gt; &lt;a href=&quot;\nhttp://ititli.com/e1&quot; rel=&quot;nofollow&quot; target=&quot;_NEW&quot;&gt;\nhttp://ititli.com/e1&lt;/a&gt; &lt;a href=&quot;\nhttp://ititli.com/eT&quot; rel=&quot;nofollow&quot; target=&quot;_NEW&quot;&gt;\nhttp://ititli.com/eT&lt;/a&gt; &lt;a href=&quot;\nhttp://ititli.com/eW&quot; rel=&quot;nofollow&quot; target=&quot;_NEW&quot;&gt;\nhttp://ititli.com/eW&lt;/a&gt; &lt;a href=&quot;\nhttp://ititli.com/eg&quot; rel=&quot;nofollow&quot; target=&quot;_NEW&quot;&gt;\nhttp://ititli.com/eg&lt;/a&gt; &lt;a href=&quot;\nhttp://ititli.com/en&quot; rel=&quot;nofollow&quot; target=&quot;_NEW&quot;&gt;\nhttp://ititli.com/en&lt;/a&gt; &lt;a href=&quot;\nhttp://ititli.com/ew&quot; rel=&quot;nofollow&quot; target=&quot;_NEW&quot;&gt;\nhttp://ititli.com/ew&lt;/a&gt; &lt;a href=&quot;\nhttp://ititli.com/e2&quot; rel=&quot;nofollow&quot; target=&quot;_NEW&quot;&gt;\nhttp://ititli.com/e2&lt;/a&gt; &lt;a href=&quot;\nhttp://ititli.com/e6&quot; rel=&quot;nofollow&quot; target=&quot;_NEW&quot;&gt;\nhttp://ititli.com/e6&lt;/a&gt; &lt;a href=&quot;\nhttp://ititli.com/e8&quot; rel=&quot;nofollow&quot; target=&quot;_NEW&quot;&gt;\nhttp://ititli.com/e8&lt;/a&gt;\n\n----------------------------------------------------------------------------------------------------\n\n\nEncoder Notes: Looking For Early Access To Anything You Can Provide DVDScr, R5, DVDR, BluRay, Direct\nAudio, Music Releases and Seedboxes. If You Got anything to offer please contact us.\n\nSupport us by donating BC - 1FgwdzPsd1y25Gea8wP1qni35uGCtmkRCD","torrent":{"xt":"urn:btih:3d4023bdd3808d4921993617637105336159bdf3","amp;dn":"Big.Game.2014.BRRip.480p.x264.AAC-VYTO+%5BP2PDL%5D","amp;tr":["udp%3A%2F%2Ftracker.openbittorrent.com%3A80","udp%3A%2F%2Fopen.demonii.com%3A1337","udp%3A%2F%2Ftracker.coppersurfer.tk%3A6969","udp%3A%2F%2Fexodus.desync.com%3A6969"],"infoHash":"3d4023bdd3808d4921993617637105336159bdf3","infoHashBuffer":{"type":"Buffer","data":[61,64,35,189,211,128,141,73,33,153,54,23,99,113,5,51,97,89,189,243]},"announce":[],"urlList":[]}}